<?xml version="1.0" standalone="no"?>
<!DOCTYPE svg PUBLIC "-//W3C//DTD SVG 20010904//EN"
 "http://www.w3.org/TR/2001/REC-SVG-20010904/DTD/svg10.dtd">
<svg version="1.0" xmlns="http://www.w3.org/2000/svg"
 width="2816.000000pt" height="1536.000000pt" viewBox="0 0 2816.000000 1536.000000"
 preserveAspectRatio="xMidYMid meet">

<g transform="translate(0.000000,1536.000000) scale(0.100000,-0.100000)"
fill="#000000" stroke="none">
<path d="M4340 9938 c-105 -30 -170 -121 -179 -251 l-6 -79 -280 -160 c-154
-88 -291 -167 -304 -174 -21 -11 -28 -10 -55 10 -59 45 -99 59 -161 60 -192 1
-314 -200 -230 -379 l26 -54 -113 -168 c-62 -92 -118 -174 -125 -181 -6 -7
-22 -30 -35 -53 -22 -39 -23 -40 -63 -32 -187 35 -347 -107 -320 -285 20 -135
102 -214 240 -230 l67 -7 79 -175 c123 -270 116 -246 86 -278 -99 -106 -89
-291 21 -379 45 -36 117 -63 171 -63 92 0 203 73 232 153 l13 37 122 0 c164 0
178 -3 194 -48 20 -56 45 -87 102 -123 49 -32 58 -34 139 -34 l87 0 26 -40
c14 -22 63 -89 109 -150 l82 -110 286 -3 286 -2 12 -41 c19 -63 95 -134 165
-154 63 -19 134 -14 176 11 l25 15 -25 -6 c-48 -13 -180 -16 -180 -5 0 7 8 9
20 5 11 -3 20 -2 20 3 0 5 -11 12 -25 14 -13 3 -22 2 -20 -3 3 -4 1 -10 -5
-14 -5 -3 -10 -1 -10 4 0 6 -3 10 -7 9 -5 -2 -18 4 -31 13 -16 12 -20 22 -15
35 6 17 5 17 -9 6 -14 -11 -18 -10 -28 9 -11 19 -10 21 4 16 10 -4 19 -1 22 8
3 7 12 11 20 8 8 -3 14 -1 14 4 0 18 -13 22 -34 11 -28 -16 -56 -20 -56 -9 0
6 -5 22 -12 38 -6 15 -11 31 -10 36 1 4 -21 7 -49 7 -37 0 -48 3 -43 13 6 10
4 10 -7 0 -16 -16 -39 -17 -39 -2 0 5 5 7 10 4 6 -3 10 -1 10 4 0 6 -14 11
-31 11 -19 0 -28 4 -24 11 4 6 14 8 22 5 8 -3 11 -1 8 4 -3 6 -21 10 -38 11
-30 1 -30 1 -7 8 31 8 87 1 70 -9 -8 -5 -5 -9 9 -13 16 -4 21 -1 19 11 -2 12
5 17 23 18 43 2 76 13 76 26 0 7 8 30 18 51 13 29 22 36 36 32 21 -7 27 10 7
18 -12 5 33 11 58 8 7 -1 14 5 17 13 4 10 1 13 -9 9 -7 -3 -14 0 -14 6 0 6 9
11 21 11 11 0 18 4 14 9 -3 5 -1 12 5 16 11 7 4 141 -11 210 -5 26 -6 8 -3
-55 4 -52 7 -106 8 -120 1 -18 -7 -28 -28 -38 -44 -22 -103 -88 -122 -138
l-17 -44 -256 0 -256 1 -34 49 c-18 27 -38 47 -44 43 -6 -3 -7 -1 -3 5 4 6
-16 43 -44 82 -55 77 -57 82 -35 100 28 24 47 76 52 145 l5 70 127 54 c218 93
406 176 539 238 29 14 55 23 57 22 1 -2 11 -74 20 -159 9 -85 19 -157 22 -160
8 -7 -7 192 -21 289 -7 45 -11 47 -49 33 -18 -7 -36 -14 -42 -15 -5 -1 -13 -6
-16 -10 -3 -4 -16 -9 -27 -10 -12 -1 -22 -5 -22 -9 0 -4 -5 -8 -11 -8 -6 0 -9
9 -6 20 3 11 1 18 -4 14 -5 -3 -9 -12 -9 -19 0 -8 -10 -19 -21 -26 -13 -6 -19
-7 -15 -1 3 6 0 12 -6 15 -7 2 -10 8 -6 12 4 4 16 2 25 -6 15 -11 16 -11 6 1
-19 21 2 53 30 45 20 -6 21 -5 5 8 -10 8 -18 17 -18 21 0 10 62 -4 79 -18 12
-8 13 -8 7 2 -4 7 -17 17 -28 21 -18 6 -11 13 44 41 62 32 65 36 63 67 -1 18
2 30 7 27 4 -3 6 -9 3 -14 -3 -5 -1 -11 5 -15 5 -3 10 -1 10 4 0 6 5 11 11 11
5 0 8 -4 5 -8 -7 -11 56 -2 71 10 9 7 11 4 8 -9 -2 -12 2 -20 10 -20 7 0 11 7
8 15 -4 9 0 13 12 11 25 -5 29 -23 10 -43 -30 -29 2 -17 53 22 28 20 61 45 74
54 177 129 199 147 156 127 -16 -7 -28 -16 -28 -21 0 -4 -7 -8 -15 -8 -9 0
-25 -9 -37 -20 -24 -22 -38 -26 -38 -9 0 5 4 8 9 5 5 -3 12 1 15 9 4 13 2 13
-14 5 -26 -14 -33 -13 -26 5 3 9 0 15 -10 15 -14 0 -14 2 0 15 8 8 17 15 20
15 4 0 22 16 40 35 19 19 32 35 30 35 -3 0 -50 -34 -106 -76 -56 -42 -107 -78
-115 -81 -8 -3 -11 -13 -8 -27 5 -16 4 -17 -3 -7 -9 12 -14 12 -36 -3 -32 -21
-29 -33 -57 177 -12 92 -26 167 -32 167 -5 0 -7 -7 -4 -15 4 -8 2 -17 -3 -20
-6 -4 -10 0 -10 7 0 10 -3 9 -10 -2 -5 -8 -12 -11 -17 -7 -4 4 -1 18 6 30 13
19 12 21 -1 10 -8 -7 -18 -10 -21 -6 -4 3 -7 1 -7 -5 0 -16 -17 -15 -17 1 -1
6 -9 62 -18 122 -19 123 -23 157 -24 197 -1 22 -7 29 -33 36 -18 5 -50 5 -71
1 -39 -7 -57 6 -42 30 3 7 0 8 -9 5 -8 -3 -12 -13 -9 -22 4 -14 3 -15 -5 -2
-6 8 -7 19 -2 25 9 11 -11 45 -28 45 -6 0 -14 5 -17 10 -12 19 24 10 43 -10
l19 -21 -4 25 c-3 14 -9 23 -14 20 -5 -3 -9 -3 -9 0 0 3 10 10 21 17 15 8 19
8 15 0 -4 -6 0 -11 8 -11 9 0 15 3 15 8 -4 22 2 56 9 47 4 -5 14 -11 22 -13
12 -3 13 -1 3 9 -7 7 -13 21 -13 32 0 10 -4 15 -10 12 -5 -3 -10 -2 -10 3 0 5
9 12 19 15 20 5 22 21 7 47 -5 8 -6 12 -1 8 12 -11 35 18 35 45 0 14 7 28 16
31 12 4 15 2 10 -9 -3 -8 -1 -15 4 -15 6 0 10 6 10 14 0 8 9 18 20 21 16 5 20
14 19 43 l-2 37 -7 -35 c-7 -31 -15 -25 -11 8 1 7 -4 11 -11 10 -7 -2 -12 3
-11 10 3 14 -13 16 -22 3 -3 -5 1 -16 9 -24 8 -8 12 -17 9 -21 -4 -3 -1 -6 5
-6 7 0 12 -5 12 -11 0 -8 -5 -7 -16 2 -13 10 -17 10 -26 -2 -8 -11 -9 -11 -4
3 3 10 1 20 -4 23 -6 4 -10 -16 -10 -48 0 -40 -4 -56 -15 -61 -11 -4 -15 2
-15 25 0 17 3 28 8 26 4 -3 8 8 9 24 1 15 -3 31 -8 35 -7 4 -9 -1 -4 -15 3
-12 2 -21 -3 -21 -15 0 -21 23 -11 42 7 13 5 15 -10 11 -13 -3 -18 -11 -14
-21 4 -14 3 -14 -5 -3 -6 8 -8 21 -4 29 4 11 1 13 -8 7 -8 -5 -11 -3 -8 6 3 8
-1 29 -8 48 -15 36 -18 70 -4 36 8 -18 9 -18 10 5 1 23 2 23 9 5 5 -11 6 -27
4 -35 -4 -13 -3 -13 5 0 6 8 8 18 5 24 -3 5 -1 6 5 2 7 -4 12 -2 12 4 0 6 5 8
11 4 8 -4 7 -9 -2 -15 -12 -7 -12 -10 0 -21 11 -11 13 -11 6 1 -6 11 -3 13 13
9 24 -7 27 -16 -59 162 -25 52 -56 118 -69 147 -13 29 -28 49 -33 46 -6 -3 -7
-1 -3 5 4 6 2 21 -4 32 -9 18 -7 26 17 54 26 29 39 55 57 109 5 16 35 17 438
18 238 1 426 3 418 5 -8 1 -139 5 -290 9 -372 7 -364 7 -346 17 9 5 21 6 26 3
5 -3 7 1 4 9 -4 12 -11 13 -31 5 -14 -5 -28 -8 -30 -5 -3 2 5 7 17 11 17 5 19
10 9 21 -10 12 -1 14 56 14 38 0 66 2 64 4 -4 5 -188 15 -281 15 -45 1 -58 4
-58 16 0 9 -9 33 -20 54 -50 99 -184 152 -300 119z m475 -268 c-3 -5 -16 -10
-28 -9 -20 1 -20 2 3 9 14 4 26 8 28 9 2 1 0 -3 -3 -9z m-210 -130 c3 -5 1
-10 -4 -10 -6 0 -11 5 -11 10 0 6 2 10 4 10 3 0 8 -4 11 -10z m-350 -49 c37
-36 116 -63 172 -60 24 2 47 -1 51 -6 5 -6 53 -101 107 -211 l98 -202 -30 -30
c-17 -16 -34 -39 -38 -51 -3 -11 -10 -21 -14 -21 -4 0 -86 16 -182 35 -96 19
-307 59 -469 90 -162 30 -305 57 -317 60 -19 4 -23 12 -23 40 0 19 4 35 9 35
5 0 16 6 23 13 7 7 38 27 68 44 75 41 172 96 319 181 69 40 126 72 129 72 2 0
15 9 29 20 32 25 31 25 68 -9z m435 -519 c0 -4 -9 -8 -20 -9 -16 -1 -17 1 -7
12 12 13 27 11 27 -3z m-985 -6 c559 -106 867 -165 871 -169 2 -1 5 -17 8 -34
6 -31 4 -32 -87 -81 -50 -27 -164 -87 -252 -132 -88 -45 -228 -118 -311 -161
-84 -44 -156 -79 -161 -79 -5 0 -16 19 -25 43 -9 23 -46 107 -83 187 -37 80
-85 186 -107 236 l-40 92 36 47 c20 25 36 51 36 56 0 12 30 11 115 -5z m785
-57 c0 -8 -42 -20 -49 -14 -2 3 2 5 10 5 12 0 12 2 0 9 -10 7 -7 9 12 8 15 -1
27 -5 27 -8z m37 -5 c-3 -3 -12 -4 -19 -1 -8 3 -5 6 6 6 11 1 17 -2 13 -5z
m-1169 -78 l53 -2 100 -219 c55 -121 109 -239 119 -262 11 -24 20 -47 20 -53
0 -6 -113 -10 -325 -10 -282 0 -325 2 -325 15 0 8 -12 37 -27 65 -21 36 -25
53 -18 64 59 88 182 263 190 272 6 6 31 41 55 78 42 63 46 66 75 60 16 -4 54
-8 83 -8z m1262 -184 c0 -5 -7 -9 -15 -9 -8 0 -12 4 -9 9 3 4 9 8 15 8 5 0 9
-4 9 -8z m38 -34 c2 -9 -29 -68 -68 -132 -39 -64 -80 -134 -92 -154 -11 -20
-42 -73 -68 -117 -41 -69 -78 -130 -150 -254 -50 -86 -166 -281 -185 -311 -12
-19 -25 -45 -29 -58 -4 -12 -13 -22 -19 -23 -22 -2 -82 3 -86 7 -2 2 -17 57
-32 121 -15 65 -48 205 -73 312 -25 107 -45 195 -43 196 4 3 240 127 399 210
90 46 222 116 293 154 72 39 135 69 140 67 6 -1 11 -10 13 -18z m-131 -3 c0
-12 -3 -12 -16 -3 -9 7 -18 14 -20 15 -2 2 5 3 16 3 11 0 20 -7 20 -15z m-47
-35 c0 -5 -7 -7 -15 -4 -8 4 -15 8 -15 10 0 2 7 4 15 4 8 0 15 -4 15 -10z
m-23 -16 c-3 -3 -12 -4 -19 -1 -8 3 -5 6 6 6 11 1 17 -2 13 -5z m210 -11 c-4
-3 -2 -12 5 -20 8 -11 7 -12 -6 -7 -9 3 -16 1 -16 -5 0 -6 -5 -11 -10 -11 -6
0 -3 11 6 25 9 14 19 25 22 25 3 0 2 -3 -1 -7z m66 -3 c3 6 4 5 3 -2 -4 -18
-46 -19 -46 -1 0 10 5 11 19 3 13 -7 21 -7 24 0z m83 4 c16 -4 21 -14 22 -40
1 -18 22 -183 47 -365 25 -182 45 -339 45 -348 0 -10 -21 -25 -58 -40 -31 -13
-88 -39 -127 -56 -38 -18 -104 -47 -145 -65 -41 -18 -97 -42 -125 -54 -27 -13
-105 -46 -172 -76 l-123 -53 -19 24 c-19 23 -19 24 13 74 18 27 46 75 63 105
31 56 50 88 231 398 56 96 102 176 102 179 0 3 8 17 19 31 10 15 29 45 41 67
64 116 137 225 150 225 8 0 24 -3 36 -6z m-406 -8 c0 -3 -4 -8 -10 -11 -5 -3
-10 -1 -10 4 0 6 5 11 10 11 6 0 10 -2 10 -4z m-780 -372 c0 -3 -58 -95 -130
-204 -71 -109 -130 -203 -130 -209 0 -6 -4 -11 -8 -11 -4 0 -16 -15 -26 -32
-11 -18 -32 -54 -49 -80 l-29 -46 -82 3 -81 3 -57 123 c-31 68 -74 161 -94
206 l-37 82 37 44 c20 24 36 46 36 49 0 3 7 22 15 42 l15 36 310 0 c171 0 310
-3 310 -6z m1357 -106 c-3 -8 -6 -5 -6 6 -1 11 2 17 5 13 3 -3 4 -12 1 -19z
m-1247 -56 c0 -7 25 -115 56 -240 53 -212 55 -227 38 -237 -33 -19 -91 -85
-109 -125 l-18 -40 -149 0 c-140 0 -148 1 -148 20 0 23 -17 65 -43 103 l-19
28 88 137 c49 75 103 160 121 187 18 28 37 55 43 62 5 7 10 15 10 18 0 3 23
40 52 83 l52 77 12 -30 c7 -17 13 -36 14 -43z m1482 -59 c-10 -4 -9 -8 5 -19
17 -12 16 -13 -4 -7 -30 7 -29 34 1 32 6 0 5 -3 -2 -6z m42 -38 c3 -8 1 -15
-4 -15 -6 0 -10 7 -10 15 0 8 2 15 4 15 2 0 6 -7 10 -15z m-29 -14 c3 -5 0
-13 -6 -17 -7 -4 -9 -3 -5 4 3 5 0 13 -6 15 -9 4 -10 6 -1 6 6 1 14 -3 18 -8z
m-25 -31 c0 -5 -4 -10 -10 -10 -5 0 -10 5 -10 10 0 6 5 10 10 10 6 0 10 -4 10
-10z m-30 -24 c0 -2 -7 -7 -16 -10 -8 -3 -12 -2 -9 4 6 10 25 14 25 6z m-415
-165 c-8 -14 -25 -14 -25 0 0 5 5 7 10 4 6 -3 10 -1 10 6 0 7 3 10 6 6 3 -3 3
-10 -1 -16z m-21 -20 c12 -1 -26 -30 -39 -31 -5 0 -3 5 5 10 13 8 13 10 -2 10
-9 0 -19 -8 -21 -17 -4 -14 -5 -13 -6 4 -1 22 13 32 39 27 8 -1 19 -3 24 -3z
m-74 -20 c0 -5 -7 -11 -14 -14 -10 -4 -13 -1 -9 9 6 15 23 19 23 5z m-60 -25
c0 -2 -7 -7 -16 -10 -8 -3 -12 -2 -9 4 6 10 25 14 25 6z m96 -10 c-6 15 -5 17
5 7 24 -24 -4 -33 -31 -11 l-25 20 29 -17 c28 -17 29 -17 22 1z m-69 -22 c-3
-3 -12 -4 -19 -1 -8 3 -5 6 6 6 11 1 17 -2 13 -5z m58 -804 c3 -6 -1 -7 -9 -4
-18 7 -21 14 -7 14 6 0 13 -4 16 -10z"/>
<path d="M5297 9303 c-48 -47 -86 -87 -84 -89 1 -2 43 35 91 82 49 46 87 86
85 89 -3 2 -44 -35 -92 -82z"/>
<path d="M5431 9293 c-7 -8 -11 -16 -8 -19 2 -2 10 2 17 11 17 20 9 27 -9 8z"/>
<path d="M9376 9211 c-3 -3 -4 -649 -4 -1434 l-1 -1427 340 0 339 0 0 1435 0
1435 -335 -1 c-184 0 -337 -4 -339 -8z"/>
<path d="M13405 9113 c-42 -60 -108 -155 -147 -213 -39 -58 -110 -159 -158
-225 -88 -123 -420 -594 -728 -1036 l-172 -246 0 -227 0 -226 765 0 766 0 -3
-295 -3 -295 323 0 322 0 0 295 0 295 221 2 221 3 0 100 c1 55 0 178 -1 272
l-1 173 -217 2 -218 3 -3 278 -2 277 -315 0 -315 0 0 -280 0 -280 -370 0
c-212 0 -370 4 -370 9 0 5 46 74 103 152 56 79 154 218 217 308 129 183 112
159 343 491 266 382 426 609 483 686 29 40 50 75 47 78 -4 3 -165 6 -359 6
l-353 0 -76 -107z"/>
<path d="M5087 9105 l-88 -84 -52 25 c-51 23 -157 34 -157 16 0 -5 24 -10 53
-10 66 -2 107 -11 107 -23 0 -5 -4 -9 -9 -9 -5 0 -11 -8 -13 -17 -4 -15 2 -18
28 -18 17 0 30 4 27 8 -3 5 -11 6 -19 3 -16 -6 -18 3 -4 24 5 8 10 10 10 5 0
-6 15 -11 34 -12 22 0 33 4 30 11 -2 6 30 44 71 85 42 41 74 75 73 76 -2 2
-43 -34 -91 -80z"/>
<path d="M5155 9034 c-14 -14 -32 -23 -40 -20 -9 3 -12 0 -9 -8 3 -7 -7 -21
-21 -32 -26 -20 -34 -59 -12 -67 10 -4 10 -6 0 -6 -7 -1 -13 -11 -12 -23 0
-22 1 -22 9 -3 5 11 9 16 10 10 1 -5 3 -14 5 -20 1 -5 3 -28 4 -50 2 -32 4
-36 11 -19 9 23 -1 89 -18 119 -10 17 -3 28 51 83 34 34 58 62 55 62 -4 0 -19
-12 -33 -26z"/>
<path d="M10710 8775 l0 -275 -172 -2 c-95 -2 -172 -6 -170 -10 1 -5 2 -118 2
-253 l0 -245 169 0 170 0 3 -532 4 -533 28 -90 c39 -129 86 -207 180 -301 104
-103 201 -155 354 -189 197 -43 387 -41 568 6 84 22 195 72 219 99 15 16 15
21 0 56 -10 22 -30 75 -45 119 -64 180 -102 280 -109 288 -4 4 -37 -6 -73 -23
-159 -74 -347 -50 -420 55 -54 79 -58 117 -58 602 l0 443 280 0 280 0 0 255 0
255 -280 0 -280 0 0 275 0 275 -325 0 -325 0 0 -275z"/>
<path d="M4815 9031 c-3 -6 6 -8 21 -5 16 3 23 1 19 -6 -4 -6 6 -8 27 -4 31 5
32 5 14 -10 -21 -17 -11 -22 13 -7 8 5 11 16 8 25 -7 18 -91 23 -102 7z"/>
<path d="M5055 8980 c-3 -5 -1 -10 4 -10 6 0 11 5 11 10 0 6 -2 10 -4 10 -3 0
-8 -4 -11 -10z"/>
<path d="M4905 8950 c3 -5 8 -10 11 -10 2 0 4 5 4 10 0 6 -5 10 -11 10 -5 0
-7 -4 -4 -10z"/>
<path d="M4800 8864 c0 -8 5 -12 10 -9 6 4 8 11 5 16 -9 14 -15 11 -15 -7z"/>
<path d="M4825 8841 c3 -6 -3 -14 -12 -20 -17 -10 -17 -10 0 -11 9 0 17 5 17
11 0 5 6 7 13 3 8 -5 8 -2 -2 9 -14 18 -26 23 -16 8z"/>
<path d="M5060 8841 c0 -6 4 -13 10 -16 6 -3 7 1 4 9 -7 18 -14 21 -14 7z"/>
<path d="M4785 8829 c-13 -20 -12 -58 1 -63 7 -3 15 0 18 7 3 9 6 9 13 0 6 -9
12 -7 21 7 10 16 9 18 -8 15 -26 -5 -49 23 -29 36 9 5 10 9 2 9 -6 0 -15 -5
-18 -11z"/>
<path d="M5118 8763 c7 -3 16 -2 19 1 4 3 -2 6 -13 5 -11 0 -14 -3 -6 -6z"/>
<path d="M5160 8750 c8 -5 22 -9 30 -9 10 0 8 3 -5 9 -27 12 -43 12 -25 0z"/>
<path d="M5220 8730 c8 -5 22 -9 30 -9 10 0 8 3 -5 9 -27 12 -43 12 -25 0z"/>
<path d="M4768 8693 c7 -3 16 -2 19 1 4 3 -2 6 -13 5 -11 0 -14 -3 -6 -6z"/>
<path d="M4740 8686 c0 -2 8 -10 18 -17 15 -13 16 -12 3 4 -13 16 -21 21 -21
13z"/>
<path d="M5062 8682 c-12 -2 -20 -8 -17 -13 4 -5 0 -16 -9 -24 -19 -19 -30
-19 -22 1 3 9 2 12 -5 8 -6 -3 -9 -15 -6 -25 3 -11 0 -19 -8 -19 -7 0 -18 -7
-26 -16 -7 -9 -22 -14 -36 -11 -13 2 -26 0 -30 -6 -3 -5 -2 -7 3 -4 6 3 16 2
24 -3 27 -17 116 46 133 93 4 11 81 -10 181 -49 13 -5 17 -4 12 4 -13 22 -158
70 -194 64z"/>
<path d="M5370 8676 c0 -2 7 -7 16 -10 8 -3 12 -2 9 4 -6 10 -25 14 -25 6z"/>
<path d="M4717 8645 c-4 -8 -3 -16 1 -19 4 -3 9 4 9 15 2 23 -3 25 -10 4z"/>
<path d="M4953 8615 c0 -8 4 -15 9 -15 4 0 8 4 8 9 0 6 -4 12 -8 15 -5 3 -9
-1 -9 -9z"/>
<path d="M5270 8610 c0 -5 5 -10 11 -10 5 0 7 5 4 10 -3 6 -8 10 -11 10 -2 0
-4 -4 -4 -10z"/>
<path d="M5300 8600 c0 -5 5 -10 11 -10 5 0 7 5 4 10 -3 6 -8 10 -11 10 -2 0
-4 -4 -4 -10z"/>
<path d="M5340 8580 c8 -5 20 -10 25 -10 6 0 3 5 -5 10 -8 5 -19 10 -25 10 -5
0 -3 -5 5 -10z"/>
<path d="M4860 8570 c-9 -6 -10 -10 -3 -10 6 0 15 5 18 10 8 12 4 12 -15 0z"/>
<path d="M4924 8538 c3 -13 10 -60 17 -105 7 -46 15 -81 17 -78 8 8 -20 205
-29 205 -5 0 -7 -10 -5 -22z"/>
<path d="M18230 8536 c-341 -61 -605 -226 -788 -492 -38 -55 -99 -187 -125
-269 -38 -121 -50 -227 -44 -388 10 -298 116 -546 314 -738 189 -184 437 -297
716 -328 565 -63 1054 170 1272 606 154 310 153 706 -3 1018 -53 107 -108 183
-191 265 -158 157 -315 243 -558 307 -87 22 -121 26 -308 29 -145 2 -233 -1
-285 -10z m384 -536 c276 -70 428 -293 413 -604 -11 -243 -126 -413 -341 -504
-56 -24 -73 -26 -201 -26 -131 -1 -144 1 -210 28 -89 37 -137 70 -200 137 -66
70 -88 107 -120 202 -64 193 -34 410 81 573 51 72 95 110 180 153 119 60 265
75 398 41z"/>
<path d="M5480 8530 c0 -5 5 -10 11 -10 5 0 7 5 4 10 -3 6 -8 10 -11 10 -2 0
-4 -4 -4 -10z"/>
<path d="M14763 8508 c3 -7 28 -65 57 -128 81 -183 138 -313 345 -790 37 -85
109 -249 160 -365 92 -207 269 -612 348 -792 l40 -93 -36 -74 c-42 -85 -97
-144 -165 -177 -41 -21 -61 -24 -157 -24 -97 1 -118 4 -175 28 -36 15 -89 43
-117 62 -29 19 -54 35 -56 35 -2 0 -19 -33 -37 -72 -19 -40 -69 -145 -112
-233 l-78 -160 32 -27 c74 -64 224 -127 362 -153 291 -54 576 1 773 150 145
108 242 256 371 560 27 66 112 266 188 445 75 179 147 350 159 380 37 91 203
486 265 630 63 146 213 504 290 693 l49 117 -322 -2 -321 -3 -54 -130 c-55
-135 -123 -299 -262 -640 -45 -110 -99 -240 -119 -290 -21 -49 -61 -147 -90
-217 -29 -71 -57 -128 -61 -128 -8 0 -59 116 -218 495 -44 105 -149 353 -233
553 l-153 362 -339 0 c-267 0 -338 -3 -334 -12z"/>
<path d="M20020 7860 c0 -718 5 -807 56 -960 55 -165 165 -321 292 -414 60
-44 169 -98 252 -125 168 -55 414 -62 596 -16 102 26 251 106 341 184 l81 70
1 -122 c1 -67 3 -123 5 -124 2 -2 139 -4 305 -4 l302 -2 0 1074 c-1 591 -1
1080 -1 1087 0 9 -72 12 -324 12 l-325 0 -4 -612 c-3 -538 -5 -621 -20 -677
-62 -233 -247 -363 -492 -348 -114 7 -179 27 -243 74 -60 44 -105 108 -131
185 -37 109 -40 164 -41 831 l0 547 -325 0 -325 0 0 -660z"/>
<path d="M4965 8287 c2 -32 6 -61 9 -64 9 -9 6 35 -4 82 -8 37 -9 35 -5 -18z"/>
<path d="M5554 8214 c-18 -15 -18 -15 3 -5 32 16 61 13 72 -6 6 -10 11 -13 11
-7 1 33 -53 45 -86 18z"/>
<path d="M5630 8168 c0 -9 -6 -19 -12 -21 -10 -4 -10 -6 0 -6 14 -1 28 26 18
36 -3 4 -6 -1 -6 -9z"/>
<path d="M5878 8043 c7 -3 16 -2 19 1 4 3 -2 6 -13 5 -11 0 -14 -3 -6 -6z"/>
<path d="M5265 7970 c3 -5 8 -10 11 -10 2 0 4 5 4 10 0 6 -5 10 -11 10 -5 0
-7 -4 -4 -10z"/>
<path d="M5170 7701 c0 -4 26 -22 58 -41 31 -19 60 -39 64 -45 4 -5 8 -6 8 -2
0 5 12 -1 27 -12 14 -12 28 -19 31 -16 7 7 9 6 -95 68 -51 31 -93 52 -93 48z"/>
<path d="M5080 7630 c8 -5 20 -10 25 -10 6 0 3 5 -5 10 -8 5 -19 10 -25 10 -5
0 -3 -5 5 -10z"/>
<path d="M5055 7565 c5 -38 18 -171 31 -295 13 -124 21 -184 19 -135 -8 142
-42 486 -50 493 -4 4 -4 -24 0 -63z"/>
<path d="M5125 7610 c3 -5 8 -10 11 -10 2 0 4 5 4 10 0 6 -5 10 -11 10 -5 0
-7 -4 -4 -10z"/>
<path d="M5152 7599 c2 -6 24 -23 48 -36 25 -14 68 -38 95 -54 47 -28 48 -28
20 -4 -52 44 -107 80 -117 77 -5 -1 -8 3 -8 9 0 5 -4 7 -10 4 -5 -3 -10 -1
-10 4 0 6 -5 11 -11 11 -6 0 -9 -5 -7 -11z"/>
<path d="M5370 7582 c0 -5 11 -14 25 -20 14 -6 25 -10 25 -8 0 2 -11 11 -25
20 -14 9 -25 13 -25 8z"/>
<path d="M5430 7426 c0 -2 7 -7 16 -10 8 -3 12 -2 9 4 -6 10 -25 14 -25 6z"/>
<path d="M4981 7314 c0 -11 3 -14 6 -6 3 7 2 16 -1 19 -3 4 -6 -2 -5 -13z"/>
<path d="M5562 7260 c0 -14 2 -19 5 -12 2 6 2 18 0 25 -3 6 -5 1 -5 -13z"/>
<path d="M5138 7033 c7 -3 16 -2 19 1 4 3 -2 6 -13 5 -11 0 -14 -3 -6 -6z"/>
<path d="M4960 6950 c0 -5 5 -10 11 -10 5 0 7 5 4 10 -3 6 -8 10 -11 10 -2 0
-4 -4 -4 -10z"/>
<path d="M5395 6930 c-3 -5 -1 -10 4 -10 6 0 11 5 11 10 0 6 -2 10 -4 10 -3 0
-8 -4 -11 -10z"/>
<path d="M5331 6833 c-1 -12 4 -25 9 -28 12 -7 12 2 0 30 -8 19 -9 19 -9 -2z"/>
<path d="M4775 6780 c-3 -5 -1 -10 4 -10 6 0 11 5 11 10 0 6 -2 10 -4 10 -3 0
-8 -4 -11 -10z"/>
<path d="M5327 6740 c-3 -11 -1 -20 4 -20 5 0 9 9 9 20 0 11 -2 20 -4 20 -2 0
-6 -9 -9 -20z"/>
<path d="M5311 6683 c-10 -26 -10 -27 4 -9 8 11 15 23 15 28 0 15 -7 8 -19
-19z"/>
<path d="M5336 6605 c4 -8 11 -15 16 -15 6 0 5 6 -2 15 -7 8 -14 15 -16 15 -2
0 -1 -7 2 -15z"/>
<path d="M5221 6577 c2 -1 15 -11 29 -22 l25 -20 -19 23 c-11 12 -24 22 -29
22 -6 0 -8 -1 -6 -3z"/>
<path d="M5370 6576 c0 -2 8 -10 18 -17 15 -13 16 -12 3 4 -13 16 -21 21 -21
13z"/>
<path d="M5275 6530 c-3 -5 -1 -10 4 -10 6 0 11 5 11 10 0 6 -2 10 -4 10 -3 0
-8 -4 -11 -10z"/>
<path d="M5610 6336 c0 -2 8 -10 18 -17 15 -13 16 -12 3 4 -13 16 -21 21 -21
13z"/>
<path d="M5680 6265 c19 -19 36 -35 39 -35 3 0 -10 16 -29 35 -19 19 -36 35
-39 35 -3 0 10 -16 29 -35z"/>
</g>
</svg>
